<svg width="822" height="249" viewBox="0 0 822 249" fill="none" xmlns="http://www.w3.org/2000/svg">
    <g clip-path="url(#clip0_735_2664)">
        <path d="M800.923 0H21.0769C9.43646 0 0 9.43646 0 21.0769V227.631C0 239.271 9.43646 248.708 21.0769 248.708H800.923C812.564 248.708 822 239.271 822 227.631V21.0769C822 9.43646 812.564 0 800.923 0Z" />
        <path d="M99.7288 43.6633L117.411 48.8385L119.783 57.0327L121.292 85.4967L119.999 95.6316L105.335 95.2004L87.6532 95.8473V87.0062L85.7124 75.5775L60.6986 75.3618L58.3266 81.6153L60.483 105.767L76.2244 106.198C84.6342 106.413 92.8284 106.629 94.5535 107.276C95.6317 107.923 101.67 108.139 107.707 108.785L118.92 109.432L121.292 145.659V164.42L119.352 196.981L102.316 205.175L60.6986 205.606L45.8197 198.49L42.1539 179.299L43.0164 150.403L43.6633 141.562L51.8575 141.993L69.971 144.365L70.6179 174.555L90.2408 176.064L90.8877 132.074L77.7339 131.643L61.9924 131.212L45.6041 126.899L43.6633 80.9684L46.6822 49.9167L67.599 43.4476L99.7288 43.6633ZM208.841 54.8764L212.938 83.9873L212.722 84.8498C212.722 85.0655 211.86 95.2004 211.428 105.335C210.997 111.157 210.566 118.058 210.35 125.605L202.587 139.406L181.886 146.306L163.557 147.169L166.576 183.396L167.654 201.725L152.775 203.45C151.266 203.45 148.678 203.665 146.306 203.881C144.797 204.097 143.287 204.097 141.778 204.097L134.231 202.803V170.026L132.937 148.678C132.721 144.15 132.721 140.053 132.721 136.387C132.506 129.702 132.506 123.233 132.506 120.861V71.0491L133.368 45.604H141.778C146.738 45.604 152.56 45.3884 157.951 45.3884C168.517 45.3884 179.73 44.9571 182.533 45.604C184.905 46.2509 189.649 46.6822 193.746 47.3291L201.294 48.6229L208.841 54.8764ZM178.436 125.174L181.671 121.939C181.671 118.489 182.749 100.16 182.749 98.0036C182.749 95.8473 180.808 88.3 180.377 86.1436L175.202 80.5371L167.87 78.812H153.207L151.913 82.4778L151.05 98.0036L152.775 125.174L161.401 126.899L178.436 125.174ZM306.308 66.0894L305.446 182.964L303.074 198.49L296.174 204.097L274.179 206.469L233.855 202.587L228.032 196.765L223.935 187.924L224.798 150.835C224.798 134.662 225.014 119.999 225.445 107.06C225.229 85.0655 225.445 63.0705 226.092 61.9924C226.092 61.1298 227.386 57.464 229.758 54.0138L232.561 47.1134L266.631 43.8789L290.998 46.8978L303.074 51.6418L306.308 66.0894ZM267.278 174.986L275.257 171.751L277.844 91.1033L272.669 88.0844L251.968 87.6531L250.027 94.9847L250.459 125.389V173.692L253.909 174.339L267.278 174.986ZM316.012 46.2509L359.786 44.9571L382.644 45.8196L389.113 46.2509L386.741 77.5182L369.49 76.44L370.784 204.097L332.616 204.528L334.557 128.624L335.419 76.0087L314.503 74.068L316.012 46.2509ZM434.612 44.5258V176.064L450.785 179.083L466.526 179.514L465.017 203.881H452.726L411.755 205.391L398.17 204.959L395.366 61.7767L396.66 46.2509L434.612 44.5258ZM475.799 84.2029L510.301 85.0655L508.575 112.02L511.163 166.792L509.654 203.234L506.635 203.665L476.446 203.019L475.152 193.099L474.721 135.309L475.799 84.2029ZM477.093 42.1538L509.654 42.5851L511.163 50.9949V65.4425L510.301 73.2055L475.799 73.4211L474.721 59.4047L474.289 44.3102L477.093 42.1538ZM525.611 51.6418L532.08 45.8196L551.271 42.8007L591.811 45.8196L597.418 51.6418L602.593 60.2673L604.102 97.3567L573.913 100.376L572.619 94.7691L572.404 68.6771L562.269 64.7956L553.859 65.8738L554.937 164.204L560.975 167.223L590.086 168.732V152.991L563.347 153.207L562.916 150.619V125.605L598.065 123.017L604.102 124.096L604.318 163.126L603.24 201.725L568.738 205.606L544.371 203.234L530.57 194.177L527.551 184.474L524.317 66.952L525.611 51.6418ZM678.281 120.214L675.262 45.604H676.987L695.317 46.0353L700.707 203.881L676.556 204.959L675.478 142.209L652.189 143.503L650.68 204.097H625.235L616.394 203.665V176.064L614.669 126.252L616.825 45.604L652.621 46.2509L651.758 120.861L678.281 120.214ZM706.745 46.2509L750.52 44.9571L773.377 45.8196L779.846 46.2509L777.474 77.5182L760.223 76.44L761.517 204.097L723.349 204.528L725.29 128.624L726.153 76.0087L705.236 74.068L706.745 46.2509Z" fill="white"/>
    </g>
    <defs>
        <clipPath id="clip0_735_2664">
            <rect width="822" height="248.708" fill="white"/>
        </clipPath>
    </defs>
</svg>
